# xmcd
# Track frame offsets:
# 150
# 18267
# 37233
# 52264
#
# Disc length: 930 seconds
# Revision: 0
# Processed by: cddbd v1.5.2PL0 Copyright (c) Steve Scherf et al.
# Submitted via: VisiTrax 2.11.2.271 - For more info visit www.synapsa.com
#
DISCID=3303a004
DTITLE=Urquhart. Felicity - City Of Light
DYEAR=2014
DGENRE=Country
TTITLE0=City Of Light
TTITLE1=Slow It Down
TTITLE2=Gone By The Wayside
TTITLE3=Give
EXTD=YEAR: 2005/12/07
EXTT0=
EXTT1=
EXTT2=
EXTT3=
PLAYORDER=
